<?xml version="1.0" encoding="utf-8"?>
<!-- Generator: Adobe Illustrator 23.0.0, SVG Export Plug-In . SVG Version: 6.00 Build 0)  -->
<svg version="1.1" id="Layer_1" xmlns="http://www.w3.org/2000/svg" xmlns:xlink="http://www.w3.org/1999/xlink" x="0px" y="0px"
	 viewBox="0 0 400 400" style="enable-background:new 0 0 400 400;" xml:space="preserve">
<style type="text/css">
	.st0{fill:#FFFFFF;}
</style>
<g>
	<path class="st0" d="M51.5,300.8c-4.3,0-8.5-0.8-12.5-2.4c-4-1.6-7.6-3.9-10.8-7c-3.2-3.1-5.7-7-7.5-11.6c-1.9-4.6-2.8-10-2.8-16.2
		c0-6.1,0.9-11.5,2.8-16.1s4.4-8.5,7.6-11.6c3.2-3.1,6.8-5.4,10.8-7c4-1.6,8.2-2.4,12.4-2.4c4.3,0,8.5,0.8,12.5,2.3
		s7.6,3.8,10.8,6.9s5.7,7,7.5,11.6s2.8,10.1,2.8,16.3c0,6-0.9,11.4-2.8,16.1c-1.8,4.7-4.4,8.5-7.5,11.6c-3.2,3.1-6.8,5.4-10.8,7
		C60,300,55.8,300.8,51.5,300.8z M51.5,298.6c3.9,0,7.1-1,9.5-3.1s4.2-5.7,5.3-10.8s1.7-12.1,1.7-21c0-9-0.6-16-1.7-21.1
		c-1.1-5.1-2.9-8.7-5.3-10.8c-2.4-2.1-5.6-3.1-9.5-3.1c-3.8,0-7,1.1-9.4,3.1c-2.4,2.1-4.2,5.7-5.3,10.8s-1.7,12.1-1.7,21.1
		c0,8.9,0.5,15.9,1.7,21c1.1,5.1,2.9,8.7,5.3,10.8C44.5,297.5,47.7,298.6,51.5,298.6z"/>
	<path class="st0" d="M94.4,316.8v-58.1c0-1.6-0.3-2.7-0.8-3.5c-0.5-0.8-1.5-1.3-2.9-1.6l-1.5-0.3v-1.1l18.1-6.2l1.1,1.1l1,3.3
		c2.3-1.4,5-2.5,7.8-3.3c2.9-0.8,5.8-1.2,8.9-1.2c6.1,0,11,2.3,14.6,7c3.6,4.7,5.4,11.3,5.4,20c0,8.5-2,15.3-5.9,20.2
		s-9.5,7.4-16.7,7.4c-5.6,0-10.3-0.8-14.2-2.5v18.5v0.4L94.4,316.8z M118.3,297.4c3.6,0,6.4-1.9,8.5-5.5c2.1-3.7,3.1-9.9,3.1-18.5
		s-1-14.6-3-18.1c-2-3.4-4.9-5.2-8.7-5.2c-2.6,0-5.6,0.9-8.8,2.6v43C112.2,296.8,115.2,297.4,118.3,297.4z"/>
	<path class="st0" d="M175.9,246c4.6,0,8.6,0.9,11.8,2.8c3.3,1.9,5.8,4.4,7.5,7.7c1.7,3.2,2.6,6.9,2.6,11c0,0.8,0,1.6-0.1,2.4
		s-0.2,1.5-0.4,2.2h-31.8c0.1,7.7,1.4,13.2,4.1,16.6s6.6,5.1,11.9,5.1c3.6,0,6.4-0.6,8.6-1.7c2.2-1.1,4.3-2.8,6.2-5l1.1,1
		c-2.2,3.9-5.1,7-8.8,9.2c-3.7,2.2-8.1,3.3-13.2,3.3c-5.1,0-9.5-1.1-13.4-3.3c-3.9-2.2-7-5.3-9.2-9.3c-2.2-4.1-3.3-8.9-3.3-14.5
		c0-5.8,1.3-10.8,3.8-14.9c2.6-4.1,5.9-7.2,9.9-9.3C167.3,247,171.5,246,175.9,246z M175.6,248.1c-2.1,0-3.8,0.6-5.3,1.9
		c-1.5,1.3-2.6,3.4-3.4,6.6c-0.8,3.2-1.3,7.6-1.3,13.4h18.3c0.7-7.8,0.4-13.3-0.9-16.8C181.7,249.8,179.2,248.1,175.6,248.1z"/>
	<path class="st0" d="M198.8,298.9v-1.1l1.5-0.4c2.5-0.7,3.7-2.5,3.7-5.2v-33.4c0-1.6-0.3-2.7-0.8-3.5s-1.5-1.3-2.9-1.6l-1.6-0.4
		v-1.1l18.3-6.2l1.1,1.1l0.9,6.4c2.5-2.2,5.3-4,8.4-5.4s6.2-2.1,9.3-2.1c4.7,0,8.3,1.3,10.8,3.8s3.8,6.5,3.8,11.7v30.7
		c0,2.8,1.4,4.5,4.1,5.2l1,0.3v1.1h-25.2v-1.1l1.4-0.4c2.5-0.8,3.7-2.5,3.7-5.2v-34c0-4.6-2.3-6.8-6.8-6.8c-3.1,0-6.6,1.6-10.3,4.7
		v36.3c0,2.8,1.2,4.5,3.7,5.2l1,0.3v1.1L198.8,298.9L198.8,298.9z"/>
	<path class="st0" d="M11.5,375.4v-1.1l2.1-0.8c2.4-0.8,3.6-2.8,3.6-6.1v-54.6c0-1.4-0.2-2.6-0.5-3.4c-0.3-0.9-1.2-1.6-2.5-2.1
		l-2.8-1.3V305h20.6l19.7,51.6L70.4,305h21v1.1l-1.7,0.6c-1.3,0.5-2.3,1.2-2.8,2.1c-0.5,0.9-0.8,2-0.8,3.5V368
		c0,1.4,0.2,2.5,0.5,3.3s1.2,1.5,2.6,2l2.1,1v1.1H64.9v-1.1l2.2-1c1.3-0.6,2.2-1.2,2.6-2c0.3-0.8,0.5-1.9,0.5-3.3v-24l0.2-30.5
		l-22.3,61.9h-5.3l-23.3-61.1l0.3,26.6v26.9c0,1.6,0.2,2.8,0.7,3.8c0.5,1,1.4,1.7,2.7,2.1l2.4,0.8v1.1L11.5,375.4L11.5,375.4z"/>
	<path class="st0" d="M110.1,377c-2.8,0-5.3-0.5-7.6-1.6s-4.1-2.8-5.4-5.2c-1.3-2.4-1.9-5.5-1.9-9.5l0.3-27.4c0-1.6-0.3-2.8-0.8-3.5
		c-0.6-0.7-1.5-1.2-2.7-1.5l-1.3-0.4v-1.1l19.1-3.7l1.1,1.1l-0.5,15.1V365c0,2.3,0.7,4,2,5c1.3,1.1,3,1.6,5,1.6s3.8-0.3,5.3-0.9
		c1.6-0.6,3.1-1.4,4.7-2.6l0.4-34.8c0-1.6-0.3-2.8-0.8-3.5s-1.4-1.2-2.8-1.4l-1.1-0.3v-1.1l18.7-4.1l1.1,1.1l-0.3,15.1v28.9
		c0,1.6,0.2,2.8,0.6,3.6s1.4,1.6,2.8,2.1l1.1,0.3v1.1l-18.7,1.1l-1-6.3c-2.3,1.9-4.9,3.5-7.6,4.9C117,376.3,113.8,377,110.1,377z"/>
	<path class="st0" d="M165.9,377c-3.5,0-6.6-0.4-9.4-1.2s-5.3-1.8-7.7-3l0.1-12.7h1.1l3.6,6.4c1.6,2.9,3.3,5,5.2,6.4
		c1.9,1.4,4.3,2.1,7.2,2.1c3.4,0,6.2-0.8,8.3-2.3s3.1-3.6,3.1-6.1c0-2.4-0.8-4.3-2.2-5.8c-1.5-1.5-4.3-2.9-8.3-4.1l-4.5-1.4
		c-4.3-1.3-7.8-3.3-10.3-6c-2.5-2.7-3.7-6-3.7-9.9c0-4.7,1.9-8.7,5.6-12c3.7-3.3,9-4.9,15.9-4.9c2.8,0,5.4,0.3,7.8,0.9
		c2.5,0.6,4.8,1.5,7.1,2.7l-0.6,11.5h-1.1l-3.7-6.6c-1.4-2.4-2.7-4-4-5c-1.3-1-3.3-1.4-5.9-1.4c-2.4,0-4.7,0.7-6.8,2
		s-3.2,3.3-3.2,5.8c0,2.4,0.9,4.3,2.7,5.8s4.5,2.7,8.1,4l4.8,1.4c5.1,1.6,8.8,3.7,11,6.5c2.2,2.7,3.3,6,3.3,9.9
		c0,5.2-2,9.4-6.1,12.5C179,375.4,173.3,377,165.9,377z"/>
	<path class="st0" d="M217.8,322.5c4.6,0,8.6,0.9,11.9,2.8c3.3,1.9,5.8,4.5,7.5,7.7c1.7,3.2,2.6,6.9,2.6,11c0,0.8,0,1.6-0.1,2.4
		s-0.2,1.5-0.4,2.2h-31.8c0.1,7.7,1.4,13.2,4.1,16.6s6.6,5.1,11.9,5.1c3.6,0,6.4-0.6,8.6-1.7c2.2-1.1,4.3-2.8,6.2-5l1.1,1
		c-2.2,3.9-5.1,7-8.8,9.2c-3.7,2.2-8.1,3.3-13.2,3.3c-5.1,0-9.5-1.1-13.4-3.3c-3.9-2.2-7-5.3-9.2-9.3s-3.3-8.9-3.3-14.5
		c0-5.8,1.3-10.8,3.8-14.9c2.6-4.1,5.9-7.2,9.9-9.3C209.2,323.5,213.4,322.5,217.8,322.5z M217.5,324.6c-2.1,0-3.8,0.6-5.3,1.9
		c-1.5,1.3-2.6,3.5-3.4,6.6c-0.8,3.2-1.3,7.6-1.3,13.4h18.3c0.7-7.8,0.4-13.3-0.9-16.8C223.6,326.3,221.1,324.6,217.5,324.6z"/>
	<path class="st0" d="M261.5,377c-2.8,0-5.3-0.5-7.6-1.6s-4.1-2.8-5.4-5.2c-1.3-2.4-1.9-5.5-1.9-9.5l0.3-27.4c0-1.6-0.3-2.8-0.9-3.5
		c-0.6-0.7-1.5-1.2-2.7-1.5l-1.3-0.4v-1.1l19.1-3.7l1.1,1.1l-0.5,15.1V365c0,2.3,0.7,4,2,5c1.3,1.1,3,1.6,5,1.6s3.8-0.3,5.3-0.9
		c1.6-0.6,3.1-1.4,4.7-2.6l0.4-34.8c0-1.6-0.3-2.8-0.8-3.5s-1.4-1.2-2.8-1.4l-1.1-0.3v-1.1l18.7-4.1l1.1,1.1l-0.3,15.1v28.9
		c0,1.6,0.2,2.8,0.6,3.6s1.4,1.6,2.8,2.1l1.1,0.3v1.1l-18.7,1.1l-1-6.3c-2.4,1.9-4.9,3.5-7.6,4.9C268.4,376.3,265.1,377,261.5,377z"
		/>
	<path class="st0" d="M299.7,375.4v-1.1l1.5-0.4c1.4-0.4,2.3-1,2.8-1.8c0.5-0.9,0.8-2,0.9-3.4v-33.4c0-1.6-0.3-2.7-0.8-3.5
		s-1.5-1.3-2.9-1.5l-1.6-0.4v-1.1l18.3-6.2l1.1,1.1l0.9,7.3c2.4-2.4,5-4.3,8.1-6c3-1.6,6.2-2.5,9.5-2.5c3.4,0,6.1,0.7,8.2,2.1
		c2.1,1.4,3.6,3.5,4.7,6.5c2.8-2.6,5.8-4.7,9-6.2s6.4-2.3,9.4-2.3c5,0,8.8,1.2,11.1,3.6s3.6,6.2,3.6,11.4v31.3
		c0,2.8,1.3,4.5,3.8,5.2l1.2,0.3v1.1h-24.6v-1.1l1.1-0.3c1.4-0.4,2.3-1.1,2.8-1.9c0.5-0.9,0.8-2,0.8-3.4V336c0-3-0.5-5-1.6-6.1
		c-1.1-1.1-2.8-1.6-5.1-1.6c-1.9,0-3.6,0.4-5.4,1.2c-1.7,0.8-3.6,2-5.5,3.7c0.4,1.1,0.6,2.4,0.7,3.7c0.1,1.4,0.2,2.8,0.2,4.3v27.6
		c0.1,2.8,1.4,4.5,3.8,5.2l1,0.3v1.1h-24.8v-1.1l1.5-0.4c1.4-0.4,2.3-1,2.8-1.9c0.5-0.8,0.8-1.9,0.8-3.4v-32.5
		c0-2.9-0.5-4.9-1.5-6.1s-2.8-1.8-5.3-1.8c-1.6,0-3.3,0.4-4.9,1.2s-3.4,2-5.1,3.6v35.8c0,2.8,1.2,4.5,3.7,5.2l1,0.3v1.1L299.7,375.4
		L299.7,375.4z"/>
</g>
</svg>
